<svg id="Layer_1" xmlns="http://www.w3.org/2000/svg" viewBox="0 0 54.87 47.24"><path d="M45.6 46.1c-.69 0-1.25-.56-1.25-1.25s.56-1.25 1.25-1.25c2.77 0 5.02-2.25 5.02-5.02V17.37c0-2.77-2.25-5.02-5.02-5.02h-6.26l.07-2.11c0-5.19-1.5-6.25-3.75-6.25H20.07c-2.25 0-3.75 1.06-3.75 6.25l.07 1.9-1.29.21h-4.97c-2.77 0-5.02 2.25-5.02 5.02v21.21c0 2.77 2.25 5.02 5.02 5.02.69 0 1.25.56 1.25 1.25s-.56 1.25-1.25 1.25c-4.15 0-7.52-3.37-7.52-7.52V17.37c0-4.15 3.37-7.52 7.52-7.52h3.69c.02-2.47.34-8.36 6.25-8.36h15.59c5.91 0 6.23 5.89 6.25 8.36h3.69c4.15 0 7.52 3.37 7.52 7.52v21.21c0 4.15-3.37 7.52-7.52 7.52z" fill="#8c9091"/><path d="M27.86 46.39c-2.32 0-4.63-.51-6.79-1.52-3.88-1.82-6.82-5.03-8.28-9.06-1.46-4.03-1.26-8.38.55-12.26 1.82-3.88 5.03-6.82 9.06-8.28 4.02-1.46 8.38-1.27 12.26.55 3.88 1.82 6.82 5.03 8.28 9.06 1.46 4.03 1.26 8.38-.55 12.26-1.81 3.88-5.03 6.82-9.06 8.28-1.78.65-3.63.97-5.47.97zm.01-29.59c-1.56 0-3.12.27-4.62.82-3.4 1.23-6.12 3.72-7.65 6.99-1.53 3.27-1.7 6.95-.47 10.35 1.23 3.4 3.72 6.12 6.99 7.65 3.27 1.53 6.95 1.69 10.35.47 3.4-1.23 6.12-3.72 7.65-6.99 1.53-3.27 1.7-6.95.47-10.35-1.23-3.4-3.72-6.12-6.99-7.65-1.82-.86-3.77-1.29-5.73-1.29z" fill="#735488"/><path class="st0" d="M24.05 35.4c-.32 0-.64-.12-.88-.37-.49-.49-.49-1.28 0-1.77l7.62-7.62c.49-.49 1.28-.49 1.77 0s.49 1.28 0 1.77l-7.62 7.62c-.25.25-.57.37-.89.37zm4.23 2.18c-.32 0-.64-.12-.89-.37-.49-.49-.48-1.28.01-1.77l5.61-5.55c.49-.49 1.28-.48 1.77.01s.48 1.28-.01 1.77l-5.61 5.55c-.25.25-.57.36-.88.36zM21.84 31.15c-.32 0-.64-.12-.89-.37-.49-.49-.48-1.28.01-1.77l5.61-5.55c.49-.49 1.28-.48 1.77.01s.48 1.28-.01 1.77l-5.61 5.55c-.24.24-.56.36-.88.36z" fill="#8c9091"/></svg>