<svg xmlns="http://www.w3.org/2000/svg" viewBox="0 0 42.79 56.18"><path d="M37.38 49.23l-5.14-14.44c-.23-.65-.95-1-1.6-.76-.05.02-.08.05-.13.08-.56.28-.84.92-.63 1.52l.42 1.17 1.03 2.89.84 2.35.97 2.71.84 2.35 1.06 2.97c.13.36.11.74-.05 1.08-.16.34-.44.6-.8.73l-4.57 1.66c-.74.26-1.54-.11-1.81-.85l-1.05-2.88-.86-2.35-1.01-2.78-.86-2.35-1.08-2.94-.44-1.2c-.21-.57-.78-.87-1.36-.78-.08.01-.16.01-.24.04-.65.24-.98.95-.74 1.6l5.3 14.49c.35.98 1.07 1.77 2.02 2.21.53.25 1.09.37 1.65.37.45 0 .9-.08 1.34-.24l4.57-1.66c.98-.35 1.77-1.07 2.21-2.02.43-.93.47-2 .12-2.97z" fill="#735488"/><path d="M22.51 38.19l.44 1.2 7.35-2.6-.42-1.17c-.21-.6.07-1.24.63-1.52-.07.01-.13 0-.2.03l-9.03 3.19c-.05.02-.09.06-.13.08.58-.08 1.15.22 1.36.79zm2.37 6.49l7.29-2.64-.84-2.35-7.31 2.65zm1.87 5.13l7.22-2.71-.84-2.35-7.24 2.71zm-8.08-16.52c-2.32 0-4.63-.51-6.79-1.52C8 29.95 5.06 26.73 3.6 22.7c-1.46-4.03-1.26-8.38.55-12.26 1.82-3.88 5.03-6.82 9.06-8.28 8.3-3.01 17.53 1.3 20.54 9.61 1.46 4.03 1.26 8.38-.55 12.26-1.82 3.88-5.03 6.82-9.06 8.28-1.78.65-3.63.98-5.47.98zM18.66 3.7c-1.53 0-3.08.26-4.6.81-3.4 1.23-6.11 3.72-7.65 6.99-1.53 3.27-1.7 6.95-.47 10.35 1.23 3.4 3.72 6.12 6.99 7.65 3.27 1.53 6.95 1.69 10.35.47 3.4-1.23 6.11-3.72 7.65-6.99 1.53-3.27 1.7-6.95.47-10.35-1.99-5.5-7.2-8.93-12.74-8.93z" fill="#8c9091"/></svg>