<svg xmlns="http://www.w3.org/2000/svg" viewBox="0 0 41.58 53.28"><path d="M27.51 49.95c-1.46 0-2.77-.76-3.51-2.02l-5.48-9.49h-7.86c-4.52 0-8.2-3.68-8.2-8.2v-18.4c0-4.52 3.68-8.2 8.2-8.2h20.97c4.52 0 8.2 3.68 8.2 8.2l-.08 14.76c-.01.71-.58 1.28-1.29 1.28h-.01c-.71 0-1.29-.59-1.28-1.3l.09-14.75c0-3.09-2.52-5.61-5.62-5.61H10.66c-3.1 0-5.62 2.52-5.62 5.62v18.39c0 3.1 2.52 5.62 5.62 5.62h8.6c.46 0 .89.25 1.12.64l5.85 10.13c.38.66 1.02.73 1.27.73s.89-.07 1.27-.73c0 0 2.93-5.53 5.37-10.28.33-.64 1.1-.88 1.74-.56.63.33.88 1.1.56 1.74-2.45 4.78-5.41 10.35-5.41 10.35-.75 1.32-2.06 2.08-3.52 2.08z" fill="#8c9091"/><path d="M29.99 17.59H11.72c-.71 0-1.29-.58-1.29-1.29 0-.71.58-1.29 1.29-1.29h18.27c.71 0 1.29.58 1.29 1.29 0 .72-.58 1.29-1.29 1.29zm0 5.13H16.88c-.71 0-1.29-.58-1.29-1.29 0-.71.58-1.29 1.29-1.29h13.11c.71 0 1.29.58 1.29 1.29 0 .71-.58 1.29-1.29 1.29zm0 5.17h-7.94c-.71 0-1.29-.58-1.29-1.29s.58-1.29 1.29-1.29h7.94c.71 0 1.29.58 1.29 1.29s-.58 1.29-1.29 1.29z" fill="#735488"/></svg>