<svg xmlns="http://www.w3.org/2000/svg" viewBox="0 0 41.58 53.28"><path d="M37.43 25.54c-.7 0-1.39-.18-2.03-.55l-5.51-3.18c-.62-.36-.83-1.15-.47-1.76.36-.62 1.14-.83 1.76-.47l5.51 3.18c.66.38 1.25.13 1.47 0 .22-.13.74-.51.74-1.27V5.58c0-.77-.51-1.15-.74-1.27-.22-.12-.81-.38-1.47 0l-5.51 3.18c-.62.36-1.4.14-1.76-.47-.36-.62-.14-1.41.47-1.76l5.51-3.18c1.26-.73 2.78-.74 4.05 0 1.27.73 2.03 2.04 2.03 3.51v15.9c0 1.47-.76 2.78-2.03 3.51-.62.36-1.32.54-2.02.54z" fill="#735488"/><path d="M20.55 26.78H6.14C2.81 26.78.1 24.07.1 20.74V6.32C.1 2.99 2.81.28 6.14.28h14.42c3.33 0 6.04 2.71 6.04 6.04v14.42c-.01 3.33-2.72 6.04-6.05 6.04zM6.14 2.86c-1.91 0-3.46 1.55-3.46 3.46v14.42c0 1.91 1.55 3.46 3.46 3.46h14.42c1.91 0 3.46-1.55 3.46-3.46V6.32c0-1.91-1.55-3.46-3.46-3.46H6.14zM13.21 53c-.71 0-1.29-.58-1.29-1.29V34.17c0-.71.58-1.29 1.29-1.29.71 0 1.29.58 1.29 1.29v17.54c0 .71-.58 1.29-1.29 1.29zm9.76-7.75c-.46 0-.91-.25-1.14-.69l-5.16-9.79c-.33-.63-.09-1.41.54-1.74.63-.33 1.41-.09 1.74.54l5.16 9.79c.33.63.09 1.41-.54 1.74-.19.1-.4.15-.6.15zm-19.52 0c-.2 0-.41-.05-.6-.15-.63-.33-.87-1.11-.54-1.74l5.16-9.79c.33-.63 1.11-.87 1.74-.54.63.33.87 1.11.54 1.74l-5.16 9.79c-.23.44-.68.69-1.14.69z" fill="#8c9091"/></svg>